<?xml version="1.0" encoding="UTF-8" standalone="no"?>
<svg
   xmlns:dc="http://purl.org/dc/elements/1.1/"
   xmlns:cc="http://creativecommons.org/ns#"
   xmlns:rdf="http://www.w3.org/1999/02/22-rdf-syntax-ns#"
   xmlns:svg="http://www.w3.org/2000/svg"
   xmlns="http://www.w3.org/2000/svg"
   id="svg6"
   version="1.1"
   viewBox="0 0 29.186441 29.186441"
   height="29.186441"
   width="29.186441">
  <metadata
     id="metadata12">
    <rdf:RDF>
      <cc:Work
         rdf:about="">
        <dc:format>image/svg+xml</dc:format>
        <dc:type
           rdf:resource="http://purl.org/dc/dcmitype/StillImage" />
        <dc:title></dc:title>
      </cc:Work>
    </rdf:RDF>
  </metadata>
  <defs
     id="defs10" />
  <path
     style="fill:none"
     id="path2"
     d="M 2.5423737,2.0338993 H 26.542374 V 26.033899 H 2.5423737 Z" />
  <circle
     r="14.593221"
     cy="14.593221"
     cx="14.593221"
     id="path834"
     style="color:#000000;clip-rule:nonzero;display:inline;overflow:visible;visibility:visible;opacity:1;isolation:auto;mix-blend-mode:normal;color-interpolation:sRGB;color-interpolation-filters:linearRGB;solid-color:#000000;solid-opacity:1;fill:#b71c1c;fill-opacity:1;fill-rule:nonzero;stroke:none;stroke-width:10;stroke-linecap:butt;stroke-linejoin:miter;stroke-miterlimit:4;stroke-dasharray:none;stroke-dashoffset:0;stroke-opacity:1;color-rendering:auto;image-rendering:auto;shape-rendering:auto;text-rendering:auto;enable-background:accumulate" />
  <path
     style="fill:#ffffff;fill-opacity:1"
     id="path4"
     d="M 22.593221,11.283221 V 6.5932209 h -4.69 l -3.31,-3.31 -3.31,3.31 H 6.5932206 v 4.6900001 l -3.31,3.31 3.31,3.31 v 4.69 h 4.6900004 l 3.31,3.31 3.31,-3.31 h 4.69 v -4.69 l 3.31,-3.31 z m -8,9.31 c -0.89,0 -1.74,-0.2 -2.5,-0.55 2.06,-0.95 3.5,-3.03 3.5,-5.45 0,-2.42 -1.44,-4.5 -3.5,-5.4500001 0.76,-0.35 1.61,-0.55 2.5,-0.55 3.31,0 6,2.6900001 6,6.0000001 0,3.31 -2.69,6 -6,6 z" />
</svg>
